<svg width="18" height="18" viewBox="0 0 18 18" fill="none" xmlns="http://www.w3.org/2000/svg">
<path d="M17.2499 13.4325C17.2649 13.995 17.1149 14.5275 16.8449 14.985C16.6949 15.255 16.4924 15.5026 16.2674 15.7051C15.7499 16.1851 15.0674 16.4776 14.3099 16.5001C13.2149 16.5226 12.2474 15.9601 11.7149 15.0976C11.4299 14.6551 11.2574 14.1226 11.2499 13.5601C11.2274 12.6151 11.6474 11.76 12.3224 11.1975C12.8324 10.7775 13.4774 10.5151 14.1824 10.5001C15.8399 10.4626 17.2124 11.775 17.2499 13.4325Z" stroke="white" stroke-width="1.5" stroke-miterlimit="10" stroke-linecap="round" stroke-linejoin="round"/>
<path d="M13.0801 13.5226L13.8376 14.2426L15.4051 12.7275" stroke="white" stroke-width="1.5" stroke-linecap="round" stroke-linejoin="round"/>
<path d="M2.37744 5.57996L8.99993 9.41245L15.5774 5.60243" stroke="white" stroke-width="1.5" stroke-linecap="round" stroke-linejoin="round"/>
<path d="M9 16.2074V9.40491" stroke="white" stroke-width="1.5" stroke-linecap="round" stroke-linejoin="round"/>
<path d="M16.2075 6.8775V11.1225C16.2075 11.16 16.2075 11.19 16.2 11.2275C15.675 10.77 15 10.5 14.25 10.5C13.545 10.5 12.8925 10.7475 12.375 11.16C11.685 11.7075 11.25 12.555 11.25 13.5C11.25 14.0625 11.4075 14.595 11.685 15.045C11.7525 15.165 11.835 15.2775 11.925 15.3825L10.5525 16.14C9.69747 16.62 8.30246 16.62 7.44746 16.14L3.44247 13.92C2.53497 13.4175 1.79248 12.1575 1.79248 11.1225V6.8775C1.79248 5.8425 2.53497 4.58252 3.44247 4.08002L7.44746 1.86C8.30246 1.38 9.69747 1.38 10.5525 1.86L14.5575 4.08002C15.465 4.58252 16.2075 5.8425 16.2075 6.8775Z" stroke="white" stroke-width="1.5" stroke-linecap="round" stroke-linejoin="round"/>
</svg>
