<svg width="19" height="19" viewBox="0 0 19 19" fill="none" xmlns="http://www.w3.org/2000/svg">
<path d="M9.50021 11.0834H10.2919C11.1627 11.0834 11.8752 10.3709 11.8752 9.50004V1.58337H4.75021C3.56271 1.58337 2.52564 2.24045 1.9873 3.20628" stroke="white" stroke-width="1.5" stroke-linecap="round" stroke-linejoin="round"/>
<path d="M1.5835 13.4584C1.5835 14.7725 2.64433 15.8334 3.9585 15.8334H4.75016C4.75016 14.9625 5.46266 14.25 6.3335 14.25C7.20433 14.25 7.91683 14.9625 7.91683 15.8334H11.0835C11.0835 14.9625 11.796 14.25 12.6668 14.25C13.5377 14.25 14.2502 14.9625 14.2502 15.8334H15.0418C16.356 15.8334 17.4168 14.7725 17.4168 13.4584V11.0834H15.0418C14.6064 11.0834 14.2502 10.7271 14.2502 10.2917V7.91671C14.2502 7.48129 14.6064 7.12504 15.0418 7.12504H16.0631L14.7093 4.75797C14.4243 4.26713 13.9019 3.95837 13.3319 3.95837H11.8752V9.50004C11.8752 10.3709 11.1627 11.0834 10.2918 11.0834H9.50016" stroke="white" stroke-width="1.5" stroke-linecap="round" stroke-linejoin="round"/>
<path d="M6.33333 17.4167C7.20778 17.4167 7.91667 16.7078 7.91667 15.8333C7.91667 14.9589 7.20778 14.25 6.33333 14.25C5.45888 14.25 4.75 14.9589 4.75 15.8333C4.75 16.7078 5.45888 17.4167 6.33333 17.4167Z" stroke="white" stroke-width="1.5" stroke-linecap="round" stroke-linejoin="round"/>
<path d="M12.6668 17.4167C13.5413 17.4167 14.2502 16.7078 14.2502 15.8333C14.2502 14.9589 13.5413 14.25 12.6668 14.25C11.7924 14.25 11.0835 14.9589 11.0835 15.8333C11.0835 16.7078 11.7924 17.4167 12.6668 17.4167Z" stroke="white" stroke-width="1.5" stroke-linecap="round" stroke-linejoin="round"/>
<path d="M17.4167 9.5V11.0833H15.0417C14.6062 11.0833 14.25 10.7271 14.25 10.2917V7.91667C14.25 7.48125 14.6062 7.125 15.0417 7.125H16.0629L17.4167 9.5Z" stroke="white" stroke-width="1.5" stroke-linecap="round" stroke-linejoin="round"/>
<path d="M1.5835 6.33337H6.3335" stroke="white" stroke-width="1.5" stroke-linecap="round" stroke-linejoin="round"/>
<path d="M1.5835 8.70837H4.75016" stroke="white" stroke-width="1.5" stroke-linecap="round" stroke-linejoin="round"/>
<path d="M1.5835 11.0834H3.16683" stroke="white" stroke-width="1.5" stroke-linecap="round" stroke-linejoin="round"/>
</svg>
