<svg width="17" height="17" viewBox="0 0 17 17" fill="none" xmlns="http://www.w3.org/2000/svg">
<path d="M14.1668 5.84371V12.75C14.1668 14.875 12.8989 15.5833 11.3335 15.5833H5.66683C4.10141 15.5833 2.8335 14.875 2.8335 12.75V5.84371C2.8335 3.54163 4.10141 3.01038 5.66683 3.01038C5.66683 3.44954 5.84389 3.84621 6.13431 4.13662C6.42473 4.42704 6.82141 4.60413 7.26058 4.60413H9.73975C10.6181 4.60413 11.3335 3.88871 11.3335 3.01038C12.8989 3.01038 14.1668 3.54163 14.1668 5.84371Z" stroke="white" stroke-width="1.5" stroke-linecap="round" stroke-linejoin="round"/>
<path d="M11.3332 3.01038C11.3332 3.88871 10.6178 4.60413 9.73942 4.60413H7.26025C6.82109 4.60413 6.4244 4.42704 6.13398 4.13662C5.84357 3.84621 5.6665 3.44954 5.6665 3.01038C5.6665 2.13204 6.38192 1.41663 7.26025 1.41663H9.73942C10.1786 1.41663 10.5753 1.59371 10.8657 1.88413C11.1561 2.17455 11.3332 2.57121 11.3332 3.01038Z" stroke="white" stroke-width="1.5" stroke-linecap="round" stroke-linejoin="round"/>
<path d="M5.6665 9.20837H8.49984" stroke="white" stroke-width="1.5" stroke-linecap="round" stroke-linejoin="round"/>
<path d="M5.6665 12.0416H11.3332" stroke="white" stroke-width="1.5" stroke-linecap="round" stroke-linejoin="round"/>
</svg>
