<svg width="17" height="17" viewBox="0 0 17 17" fill="none" xmlns="http://www.w3.org/2000/svg">
<path d="M15.5833 10.625C15.5833 13.3662 13.3662 15.5833 10.625 15.5833L11.3688 14.3437" stroke="white" stroke-width="1.5" stroke-linecap="round" stroke-linejoin="round"/>
<path d="M1.4165 6.37496C1.4165 3.63371 3.63359 1.41663 6.37484 1.41663L5.63109 2.65621" stroke="white" stroke-width="1.5" stroke-linecap="round" stroke-linejoin="round"/>
<path d="M9.7041 3.1521L12.5233 4.78126L15.3141 3.15919" stroke="white" stroke-width="1.5" stroke-linecap="round" stroke-linejoin="round"/>
<path d="M12.5234 7.66418V4.77417" stroke="white" stroke-width="1.5" stroke-linecap="round" stroke-linejoin="round"/>
<path d="M11.8573 1.56538L10.1573 2.50743C9.7748 2.71993 9.45605 3.25826 9.45605 3.69742V5.49662C9.45605 5.93578 9.76771 6.47411 10.1573 6.68661L11.8573 7.62871C12.2186 7.83412 12.8136 7.83412 13.1819 7.62871L14.8819 6.68661C15.2644 6.47411 15.5831 5.93578 15.5831 5.49662V3.69742C15.5831 3.25826 15.2715 2.71993 14.8819 2.50743L13.1819 1.56538C12.8206 1.36704 12.2256 1.36704 11.8573 1.56538Z" stroke="white" stroke-width="1.5" stroke-linecap="round" stroke-linejoin="round"/>
<path d="M1.66455 10.9438L4.47663 12.573L7.27455 10.9509" stroke="white" stroke-width="1.5" stroke-linecap="round" stroke-linejoin="round"/>
<path d="M4.47656 15.4559V12.5659" stroke="white" stroke-width="1.5" stroke-linecap="round" stroke-linejoin="round"/>
<path d="M3.81775 9.35712L2.11776 10.2992C1.73526 10.5117 1.4165 11.05 1.4165 11.4892V13.2884C1.4165 13.7275 1.72817 14.2659 2.11776 14.4784L3.81775 15.4205C4.179 15.6259 4.774 15.6259 5.14233 15.4205L6.84234 14.4784C7.22484 14.2659 7.54358 13.7275 7.54358 13.2884V11.4892C7.54358 11.05 7.23192 10.5117 6.84234 10.2992L5.14233 9.35712C4.774 9.15879 4.179 9.15879 3.81775 9.35712Z" stroke="white" stroke-width="1.5" stroke-linecap="round" stroke-linejoin="round"/>
</svg>
